<svg xmlns="http://www.w3.org/2000/svg" viewBox="0 0 800 324" width="800" height="324" role="img" aria-labelledby="svgTitle svgDesc">
  <title id="svgTitle">JharlyOk — Technology Stack</title>
  <desc id="svgDesc">Categorized overview of technologies and tools.</desc>
  <rect x="0" y="0" width="800" height="324" rx="10" fill="#ffffff" stroke="#d0d7de" stroke-width="1" />
  <rect x="0" y="0" width="800" height="36" rx="10" fill="#eff2f5" />
  <rect x="0" y="26" width="800" height="10" rx="0" fill="#eff2f5" />
  <line x1="0" y1="36" x2="800" y2="36" stroke="#d0d7de" stroke-width="1" />
  <circle cx="16" cy="18" r="4.5" fill="#f85149" />
  <circle cx="32" cy="18" r="4.5" fill="#d29922" />
  <circle cx="48" cy="18" r="4.5" fill="#3fb950" />
  <text x="68" y="22" font-family="'JetBrains Mono', 'SF Mono', 'Fira Code', ui-monospace, Consolas, monospace" font-size="12"><tspan fill="#1a7f37" font-weight="600">jharlyok@dev</tspan><tspan fill="#6e7681">:</tspan><tspan fill="#0969da" font-weight="600">~</tspan><tspan fill="#6e7681">$ </tspan><tspan fill="#1f2328">cat /etc/stack.yaml</tspan></text>
  <rect x="680" y="8" width="108" height="20" rx="4" fill="#eaeef2" stroke="#d8dee4" stroke-width="0.8" />
  <circle cx="690" cy="18" r="3" fill="#0969da" />
  <text x="700" y="22" fill="#0969da" font-family="'JetBrains Mono', 'SF Mono', 'Fira Code', ui-monospace, Consolas, monospace" font-size="10.5" font-weight="600">6 categories</text>
  <text x="24" y="66" fill="#656d76" font-family="'JetBrains Mono', 'SF Mono', 'Fira Code', ui-monospace, Consolas, monospace" font-size="10" font-weight="600" letter-spacing="0.5">AI &amp; Prompt Architecture</text>
  <line x1="24" y1="72" x2="254" y2="72" stroke="#d8dee4" stroke-width="0.5" />
  <rect x="24" y="86" width="109" height="20" rx="4" fill="#f6f8fa" stroke="#d8dee4" stroke-width="0.5" />
  <text x="33" y="100" fill="#1f2328" font-family="'JetBrains Mono', 'SF Mono', 'Fira Code', ui-monospace, Consolas, monospace" font-size="11">Google Gemini</text>
  <rect x="24" y="110" width="60" height="20" rx="4" fill="#f6f8fa" stroke="#d8dee4" stroke-width="0.5" />
  <text x="33" y="124" fill="#1f2328" font-family="'JetBrains Mono', 'SF Mono', 'Fira Code', ui-monospace, Consolas, monospace" font-size="11">Cursor</text>
  <rect x="24" y="134" width="116" height="20" rx="4" fill="#f6f8fa" stroke="#d8dee4" stroke-width="0.5" />
  <text x="33" y="148" fill="#1f2328" font-family="'JetBrains Mono', 'SF Mono', 'Fira Code', ui-monospace, Consolas, monospace" font-size="11">epic-ai-agents</text>
  <text x="284" y="66" fill="#656d76" font-family="'JetBrains Mono', 'SF Mono', 'Fira Code', ui-monospace, Consolas, monospace" font-size="10" font-weight="600" letter-spacing="0.5">Bot Frameworks (MTProto)</text>
  <line x1="284" y1="72" x2="514" y2="72" stroke="#d8dee4" stroke-width="0.5" />
  <rect x="284" y="86" width="74" height="20" rx="4" fill="#f6f8fa" stroke="#d8dee4" stroke-width="0.5" />
  <text x="293" y="100" fill="#1f2328" font-family="'JetBrains Mono', 'SF Mono', 'Fira Code', ui-monospace, Consolas, monospace" font-size="11">Telethon</text>
  <rect x="284" y="110" width="74" height="20" rx="4" fill="#f6f8fa" stroke="#d8dee4" stroke-width="0.5" />
  <text x="293" y="124" fill="#1f2328" font-family="'JetBrains Mono', 'SF Mono', 'Fira Code', ui-monospace, Consolas, monospace" font-size="11">Pyrogram</text>
  <rect x="284" y="134" width="116" height="20" rx="4" fill="#f6f8fa" stroke="#d8dee4" stroke-width="0.5" />
  <text x="293" y="148" fill="#1f2328" font-family="'JetBrains Mono', 'SF Mono', 'Fira Code', ui-monospace, Consolas, monospace" font-size="11">Discord.js v14</text>
  <text x="544" y="66" fill="#656d76" font-family="'JetBrains Mono', 'SF Mono', 'Fira Code', ui-monospace, Consolas, monospace" font-size="10" font-weight="600" letter-spacing="0.5">Audio &amp; Media Pipeline</text>
  <line x1="544" y1="72" x2="774" y2="72" stroke="#d8dee4" stroke-width="0.5" />
  <rect x="544" y="86" width="95" height="20" rx="4" fill="#f6f8fa" stroke="#d8dee4" stroke-width="0.5" />
  <text x="553" y="100" fill="#1f2328" font-family="'JetBrains Mono', 'SF Mono', 'Fira Code', ui-monospace, Consolas, monospace" font-size="11">Lavalink v4</text>
  <rect x="544" y="110" width="67" height="20" rx="4" fill="#f6f8fa" stroke="#d8dee4" stroke-width="0.5" />
  <text x="553" y="124" fill="#1f2328" font-family="'JetBrains Mono', 'SF Mono', 'Fira Code', ui-monospace, Consolas, monospace" font-size="11">LavaSrc</text>
  <rect x="544" y="134" width="60" height="20" rx="4" fill="#f6f8fa" stroke="#d8dee4" stroke-width="0.5" />
  <text x="553" y="148" fill="#1f2328" font-family="'JetBrains Mono', 'SF Mono', 'Fira Code', ui-monospace, Consolas, monospace" font-size="11">Pillow</text>
  <text x="24" y="194" fill="#656d76" font-family="'JetBrains Mono', 'SF Mono', 'Fira Code', ui-monospace, Consolas, monospace" font-size="10" font-weight="600" letter-spacing="0.5">Persistence &amp; Caching</text>
  <line x1="24" y1="200" x2="254" y2="200" stroke="#d8dee4" stroke-width="0.5" />
  <rect x="24" y="214" width="102" height="20" rx="4" fill="#f6f8fa" stroke="#d8dee4" stroke-width="0.5" />
  <text x="33" y="228" fill="#1f2328" font-family="'JetBrains Mono', 'SF Mono', 'Fira Code', ui-monospace, Consolas, monospace" font-size="11">SQLite (WAL)</text>
  <rect x="24" y="238" width="53" height="20" rx="4" fill="#f6f8fa" stroke="#d8dee4" stroke-width="0.5" />
  <text x="33" y="252" fill="#1f2328" font-family="'JetBrains Mono', 'SF Mono', 'Fira Code', ui-monospace, Consolas, monospace" font-size="11">Redis</text>
  <rect x="24" y="262" width="67" height="20" rx="4" fill="#f6f8fa" stroke="#d8dee4" stroke-width="0.5" />
  <text x="33" y="276" fill="#1f2328" font-family="'JetBrains Mono', 'SF Mono', 'Fira Code', ui-monospace, Consolas, monospace" font-size="11">MongoDB</text>
  <text x="284" y="194" fill="#656d76" font-family="'JetBrains Mono', 'SF Mono', 'Fira Code', ui-monospace, Consolas, monospace" font-size="10" font-weight="600" letter-spacing="0.5">Core Runtimes</text>
  <line x1="284" y1="200" x2="514" y2="200" stroke="#d8dee4" stroke-width="0.5" />
  <rect x="284" y="214" width="95" height="20" rx="4" fill="#f6f8fa" stroke="#d8dee4" stroke-width="0.5" />
  <text x="293" y="228" fill="#1f2328" font-family="'JetBrains Mono', 'SF Mono', 'Fira Code', ui-monospace, Consolas, monospace" font-size="11">Python 3.12</text>
  <rect x="284" y="238" width="102" height="20" rx="4" fill="#f6f8fa" stroke="#d8dee4" stroke-width="0.5" />
  <text x="293" y="252" fill="#1f2328" font-family="'JetBrains Mono', 'SF Mono', 'Fira Code', ui-monospace, Consolas, monospace" font-size="11">TypeScript 5</text>
  <rect x="284" y="262" width="88" height="20" rx="4" fill="#f6f8fa" stroke="#d8dee4" stroke-width="0.5" />
  <text x="293" y="276" fill="#1f2328" font-family="'JetBrains Mono', 'SF Mono', 'Fira Code', ui-monospace, Consolas, monospace" font-size="11">Node.js 20</text>
  <text x="544" y="194" fill="#656d76" font-family="'JetBrains Mono', 'SF Mono', 'Fira Code', ui-monospace, Consolas, monospace" font-size="10" font-weight="600" letter-spacing="0.5">Infrastructure</text>
  <line x1="544" y1="200" x2="774" y2="200" stroke="#d8dee4" stroke-width="0.5" />
  <rect x="544" y="214" width="60" height="20" rx="4" fill="#f6f8fa" stroke="#d8dee4" stroke-width="0.5" />
  <text x="553" y="228" fill="#1f2328" font-family="'JetBrains Mono', 'SF Mono', 'Fira Code', ui-monospace, Consolas, monospace" font-size="11">Docker</text>
  <rect x="544" y="238" width="81" height="20" rx="4" fill="#f6f8fa" stroke="#d8dee4" stroke-width="0.5" />
  <text x="553" y="252" fill="#1f2328" font-family="'JetBrains Mono', 'SF Mono', 'Fira Code', ui-monospace, Consolas, monospace" font-size="11">Linux VPS</text>
  <rect x="544" y="262" width="95" height="20" rx="4" fill="#f6f8fa" stroke="#d8dee4" stroke-width="0.5" />
  <text x="553" y="276" fill="#1f2328" font-family="'JetBrains Mono', 'SF Mono', 'Fira Code', ui-monospace, Consolas, monospace" font-size="11">Pterodactyl</text>
</svg>
