<svg xmlns="http://www.w3.org/2000/svg" viewBox="0 0 300 488" width="300" height="488" role="img" aria-labelledby="svgMobileStatsTitle svgMobileStatsDesc">
  <title id="svgMobileStatsTitle">JharlyOk Mobile GitHub Telemetry</title>
  <desc id="svgMobileStatsDesc">Live developer telemetry dashboard</desc>
  <rect x="0" y="0" width="300" height="488" rx="8" fill="#ffffff" stroke="#d0d7de" stroke-width="1.0" />
  <rect x="0" y="0" width="300" height="36" rx="8" fill="#f6f8fa" />
  <rect x="0" y="26" width="300" height="10" rx="0" fill="#f6f8fa" />
  <line x1="0" y1="36" x2="300" y2="36" stroke="#d8dee4" stroke-width="1.0" />
  <circle cx="12" cy="18" r="4.5" fill="#ff5f56" />
  <circle cx="24" cy="18" r="4.5" fill="#ffbd2e" />
  <circle cx="36" cy="18" r="4.5" fill="#27c93f" />
  <text x="48" y="22" font-family="'JetBrains Mono', 'SF Mono', 'Fira Code', ui-monospace, Consolas, monospace" font-size="10.5" font-weight="600" fill="#656d76">jharlyok@dev:~$ <tspan fill="#1f2328">telemetry</tspan></text>
  <rect x="246" y="8.0" width="46" height="20" rx="4" fill="#eaeef2" stroke="#d8dee4" stroke-width="0.8" />
  <circle cx="255" cy="18" r="2.5" fill="#1a7f37" />
  <text x="262" y="18" font-family="'JetBrains Mono', 'SF Mono', 'Fira Code', ui-monospace, Consolas, monospace" font-size="9" font-weight="700" fill="#1a7f37" dominant-baseline="central">LIVE</text>
  <rect x="10" y="46" width="280" height="76" rx="6" fill="#f6f8fa" stroke="#d8dee4" stroke-width="1.0" />
  <rect x="10" y="54" width="3" height="60" rx="1.5" fill="#1a7f37" />
  <g transform="translate(22, 58) scale(0.6667)">
    <path d="M3 2.75A2.75 2.75 0 0 1 5.75 0h14.5a.75.75 0 0 1 .75.75v20.5a.75.75 0 0 1-.75.75h-2a.75.75 0 0 1 0-1.5H19.5V1.5H5.75A1.25 1.25 0 0 0 4.5 2.75v16.5c0 .69.56 1.25 1.25 1.25h12.5a.75.75 0 0 1 0 1.5H5.75A2.75 2.75 0 0 1 3 19.25Zm3.25 3.75a.75.75 0 0 1 .75-.75h7a.75.75 0 0 1 0 1.5h-7a.75.75 0 0 1-.75-.75Zm.75 3.5a.75.75 0 0 0 0 1.5h4a.75.75 0 0 0 0-1.5Z" fill="#1a7f37" />
  </g>
  <text x="44" y="70" font-family="'JetBrains Mono', 'SF Mono', 'Fira Code', ui-monospace, Consolas, monospace" font-size="10.5" font-weight="700" letter-spacing="0.5" fill="#656d76">REPOSITORIOS</text>
  <text x="22" y="94" font-family="'JetBrains Mono', 'SF Mono', 'Fira Code', ui-monospace, Consolas, monospace" font-size="17" font-weight="800" fill="#1f2328">9 Activos</text>
  <text x="22" y="111" font-family="'JetBrains Mono', 'SF Mono', 'Fira Code', ui-monospace, Consolas, monospace" font-size="10" font-weight="500" fill="#6e7681">sistemas open source</text>
  <rect x="10" y="132" width="280" height="76" rx="6" fill="#f6f8fa" stroke="#d8dee4" stroke-width="1.0" />
  <rect x="10" y="140" width="3" height="60" rx="1.5" fill="#9a6700" />
  <g transform="translate(22, 144) scale(0.6667)">
    <path d="M12.672.668a.75.75 0 0 0-1.345 0L8.27 6.865l-6.838.994a.75.75 0 0 0-.416 1.279l4.948 4.823-1.168 6.811a.75.75 0 0 0 1.088.791L12 18.347l6.117 3.216a.75.75 0 0 0 1.088-.79l-1.169-6.812 4.948-4.823a.75.75 0 0 0-.416-1.28l-6.838-.993L12.672.668Z" fill="#9a6700" />
  </g>
  <text x="44" y="156" font-family="'JetBrains Mono', 'SF Mono', 'Fira Code', ui-monospace, Consolas, monospace" font-size="10.5" font-weight="700" letter-spacing="0.5" fill="#656d76">ESTRELLAS</text>
  <text x="22" y="180" font-family="'JetBrains Mono', 'SF Mono', 'Fira Code', ui-monospace, Consolas, monospace" font-size="17" font-weight="800" fill="#1f2328">0 Ganadas</text>
  <text x="22" y="197" font-family="'JetBrains Mono', 'SF Mono', 'Fira Code', ui-monospace, Consolas, monospace" font-size="10" font-weight="500" fill="#6e7681">stargazers de la comunidad</text>
  <rect x="10" y="218" width="280" height="76" rx="6" fill="#f6f8fa" stroke="#d8dee4" stroke-width="1.0" />
  <rect x="10" y="226" width="3" height="60" rx="1.5" fill="#8250df" />
  <g transform="translate(22, 230) scale(0.6667)">
    <path d="M10.5 4.5a3.5 3.5 0 1 1-7 0 3.5 3.5 0 0 1 7 0ZM7 6.5a2 2 0 1 0 0-4 2 2 0 0 0 0 4Zm-5.5 12a4.5 4.5 0 0 1 9 0 .75.75 0 0 1-1.5 0 3 3 0 0 0-6 0 .75.75 0 0 1-1.5 0Zm14.5-12a3 3 0 1 1-6 0 3 3 0 0 1 6 0Zm-1.5 0a1.5 1.5 0 1 0-3 0 1.5 1.5 0 0 0 3 0Zm-4.25 12a4.25 4.25 0 0 1 7.25-3.056.75.75 0 0 1-1.042 1.08 2.75 2.75 0 0 0-4.666 1.976.75.75 0 0 1-1.5 0Z" fill="#8250df" />
  </g>
  <text x="44" y="242" font-family="'JetBrains Mono', 'SF Mono', 'Fira Code', ui-monospace, Consolas, monospace" font-size="10.5" font-weight="700" letter-spacing="0.5" fill="#656d76">SEGUIDORES</text>
  <text x="22" y="266" font-family="'JetBrains Mono', 'SF Mono', 'Fira Code', ui-monospace, Consolas, monospace" font-size="17" font-weight="800" fill="#1f2328">1 Seguidor</text>
  <text x="22" y="283" font-family="'JetBrains Mono', 'SF Mono', 'Fira Code', ui-monospace, Consolas, monospace" font-size="10" font-weight="500" fill="#6e7681">2 desarrolladores seguidos</text>
  <rect x="10" y="304" width="280" height="76" rx="6" fill="#f6f8fa" stroke="#d8dee4" stroke-width="1.0" />
  <rect x="10" y="312" width="3" height="60" rx="1.5" fill="#0969da" />
  <g transform="translate(22, 316) scale(0.6667)">
    <path d="M1.679 13.111c-.412-.606-.679-1.28-.679-1.111 0-.17.267-.843.679-1.448C3.12 8.358 6.89 5 12 5c5.11 0 8.88 3.358 10.321 5.552.412.605.679 1.28.679 1.448 0 .17-.267.843-.679 1.448C20.88 15.642 17.11 19 12 19c-5.11 0-8.88-3.358-10.321-5.889ZM12 6.5C7.758 6.5 4.412 9.387 3.125 11.233c.313.438.804.996 1.464 1.583C6.183 14.218 8.818 15.5 12 15.5c3.182 0 5.817-1.282 7.411-2.684.66-.587 1.151-1.145 1.464-1.583C19.588 9.387 16.242 6.5 12 6.5ZM12 8.5a3.5 3.5 0 1 1 0 7 3.5 3.5 0 0 1 0-7Zm0 1.5a2 2 0 1 0 0 4 2 2 0 0 0 0-4Z" fill="#0969da" />
  </g>
  <text x="44" y="328" font-family="'JetBrains Mono', 'SF Mono', 'Fira Code', ui-monospace, Consolas, monospace" font-size="10.5" font-weight="700" letter-spacing="0.5" fill="#656d76">VISITAS</text>
  <text x="22" y="352" font-family="'JetBrains Mono', 'SF Mono', 'Fira Code', ui-monospace, Consolas, monospace" font-size="17" font-weight="800" fill="#1f2328">+131 Visitas</text>
  <text x="22" y="369" font-family="'JetBrains Mono', 'SF Mono', 'Fira Code', ui-monospace, Consolas, monospace" font-size="10" font-weight="500" fill="#6e7681">contador en tiempo real</text>
  <rect x="10" y="390" width="280" height="86" rx="6" fill="#f6f8fa" stroke="#d8dee4" stroke-width="1.0" />
  <text x="20" y="410" font-family="'JetBrains Mono', 'SF Mono', 'Fira Code', ui-monospace, Consolas, monospace" font-size="10" font-weight="600" fill="#1f2328"><tspan fill="#0969da">❯</tspan> <tspan fill="#656d76">Antigüedad:</tspan> Desde 2020 (6 años)</text>
  <text x="20" y="428" font-family="'JetBrains Mono', 'SF Mono', 'Fira Code', ui-monospace, Consolas, monospace" font-size="10" font-weight="600" fill="#1f2328"><tspan fill="#0969da">❯</tspan> <tspan fill="#656d76">Flota:</tspan> 13+ Bots Autónomos</text>
  <text x="20" y="446" font-family="'JetBrains Mono', 'SF Mono', 'Fira Code', ui-monospace, Consolas, monospace" font-size="10" font-weight="600" fill="#1f2328"><tspan fill="#0969da">❯</tspan> <tspan fill="#656d76">Pipeline:</tspan> Lavalink v4 + LavaSrc</text>
  <text x="20" y="464" font-family="'JetBrains Mono', 'SF Mono', 'Fira Code', ui-monospace, Consolas, monospace" font-size="10" font-weight="600" fill="#1f2328"><tspan fill="#0969da">❯</tspan> <tspan fill="#656d76">Sincronizado vía</tspan> <tspan fill="#0969da">Actions</tspan></text>
</svg>
